<?xml version="1.0" encoding="utf-8"?><svg xmlns="http://www.w3.org/2000/svg" xmlns:xlink="http://www.w3.org/1999/xlink"><symbol viewBox="0 0 451.847 451.847" id="arrow-down" xmlns="http://www.w3.org/2000/svg"><path d="M225.923 354.706c-8.098 0-16.195-3.092-22.369-9.263L9.27 151.157c-12.359-12.359-12.359-32.397 0-44.751 12.354-12.354 32.388-12.354 44.748 0l171.905 171.915 171.906-171.909c12.359-12.354 32.391-12.354 44.744 0 12.365 12.354 12.365 32.392 0 44.751L248.292 345.449c-6.177 6.172-14.274 9.257-22.369 9.257z"/></symbol><symbol viewBox="0 0 512 512" id="calendar" xmlns="http://www.w3.org/2000/svg"><path d="M452 40h-24V0h-40v40H124V0H84v40H60C26.916 40 0 66.916 0 100v352c0 33.084 26.916 60 60 60h392c33.084 0 60-26.916 60-60V100c0-33.084-26.916-60-60-60zm20 412c0 11.028-8.972 20-20 20H60c-11.028 0-20-8.972-20-20V188h432v264zm0-304H40v-48c0-11.028 8.972-20 20-20h24v40h40V80h264v40h40V80h24c11.028 0 20 8.972 20 20v48z"/><path d="M76 230h40v40H76zm80 0h40v40h-40zm80 0h40v40h-40zm80 0h40v40h-40zm80 0h40v40h-40zM76 310h40v40H76zm80 0h40v40h-40zm80 0h40v40h-40zm80 0h40v40h-40zM76 390h40v40H76zm80 0h40v40h-40zm80 0h40v40h-40zm80 0h40v40h-40zm80-80h40v40h-40z"/></symbol><symbol viewBox="0 0 432.671 432.671" id="paperclip" xmlns="http://www.w3.org/2000/svg"><path d="M432.672 109.552c0-23.86-9.292-46.292-26.163-63.163-34.828-34.828-91.498-34.828-126.326 0L79.762 246.81c-23.648 23.647-23.648 62.127 0 85.774 23.648 23.648 62.127 23.648 85.775 0l147.42-147.42c5.859-5.858 5.859-15.356 0-21.214-5.857-5.858-15.354-5.858-21.212 0L144.323 311.371c-11.951 11.951-31.397 11.951-43.348 0-5.79-5.79-8.978-13.487-8.978-21.674s3.188-15.885 8.978-21.674l200.42-200.42c23.132-23.132 60.77-23.132 83.9 0 11.206 11.205 17.377 26.103 17.377 41.95 0 15.845-6.171 30.744-17.376 41.95L180.17 356.626c-16.621 16.621-38.72 25.774-62.225 25.774-23.506 0-45.604-9.153-62.225-25.774-34.312-34.312-34.311-90.14 0-124.45L207.845 80.05c5.858-5.857 5.858-15.355 0-21.213-5.858-5.858-15.355-5.858-21.213 0L34.507 210.963c-46.008 46.008-46.008 120.87 0 166.877 22.287 22.288 51.92 34.562 83.439 34.562 31.519 0 61.15-12.274 83.439-34.562l205.124-205.125c16.872-16.87 26.163-39.303 26.163-63.163z" data-original="#000000" xmlns="http://www.w3.org/2000/svg"/></symbol></svg>