<svg xmlns="http://www.w3.org/2000/svg" width="512" height="512" viewBox="0 0 432.671 432.671"><path d="M432.672 109.552c0-23.86-9.292-46.292-26.163-63.163-34.828-34.828-91.498-34.828-126.326 0L79.762 246.81c-23.648 23.647-23.648 62.127 0 85.774 23.648 23.648 62.127 23.648 85.775 0l147.42-147.42c5.859-5.858 5.859-15.356 0-21.214-5.857-5.858-15.354-5.858-21.212 0L144.323 311.371c-11.951 11.951-31.397 11.951-43.348 0-5.79-5.79-8.978-13.487-8.978-21.674s3.188-15.885 8.978-21.674l200.42-200.42c23.132-23.132 60.77-23.132 83.9 0 11.206 11.205 17.377 26.103 17.377 41.95 0 15.845-6.171 30.744-17.376 41.95L180.17 356.626c-16.621 16.621-38.72 25.774-62.225 25.774-23.506 0-45.604-9.153-62.225-25.774-34.312-34.312-34.311-90.14 0-124.45L207.845 80.05c5.858-5.857 5.858-15.355 0-21.213-5.858-5.858-15.355-5.858-21.213 0L34.507 210.963c-46.008 46.008-46.008 120.87 0 166.877 22.287 22.288 51.92 34.562 83.439 34.562 31.519 0 61.15-12.274 83.439-34.562l205.124-205.125c16.872-16.87 26.163-39.303 26.163-63.163z" data-original="#000000" xmlns="http://www.w3.org/2000/svg"/></svg>